/* XPM */
static char * C:\home\tmp\nay_el2_xpm[] = {
"13 15 9 1",
" 	c #99D9EA",
".	c #000000",
"+	c #FFAEC9",
"@	c #ED1C24",
"#	c #FFE3ED",
"$	c #FFD8E5",
"%	c #FFE2C6",
"&	c #22B14C",
"*	c #FFFFFF",
" ...     ... ",
".++@.....+++.",
".+@+.++++@@+.",
".@+.++@@+.+@.",
" ..#$++.++...",
"  .$+..%.+.+.",
"  ...%%%%..++",
" .&&%@%%@%&&+",
".+&&.%%%%.&&+",
".++.*..*.%.++",
".*.%@@***%%..",
" .%%@@@*@.%. ",
"   @@@@@@*.. ",
"   ..@@@@.   ",
"     ....    "};
